<svg width="50" height="50" viewBox="0 0 50 50" fill="none" xmlns="http://www.w3.org/2000/svg">
<path d="M25 50C38.8071 50 50 38.8071 50 25C50 11.1929 38.8071 0 25 0C11.1929 0 0 11.1929 0 25C0 38.8071 11.1929 50 25 50Z" fill="#D80041"/>
<path d="M11 25.0001C11 25.9175 11.7653 26.6635 12.6634 26.6635H23.3366V37.3368C23.3366 38.2348 24.0827 39 25.0001 39C25.9149 39 26.6803 38.2372 26.6803 37.3368V26.6635H37.3368C38.2348 26.6635 39 25.9175 39 25.0001C39 24.0852 38.2372 23.3199 37.3368 23.3199H26.6803V12.6634C26.6803 11.7628 25.9149 11 25.0001 11C24.0827 11 23.3366 11.7653 23.3366 12.6634V23.3199H12.6634C11.7628 23.3199 11 24.0852 11 25.0001Z" fill="white" stroke="white"/>
</svg>
