<svg width="44" height="56" viewBox="0 0 44 56" fill="none" xmlns="http://www.w3.org/2000/svg">
<path d="M19.1486 42.84H21.1646V43.384H19.1486V42.84ZM17.4046 41.016H17.9486V42.304C17.9486 43.928 17.0926 45.48 15.9486 46.096L15.5246 45.568C16.5886 45.04 17.4046 43.648 17.4046 42.304V41.016ZM17.5326 41.016H18.0686V42.304C18.0686 43.624 18.8846 44.936 19.9326 45.432L19.5406 45.968C18.3726 45.376 17.5326 43.888 17.5326 42.304V41.016ZM20.8366 40.384H21.4926V47.632H20.8366V40.384ZM28.428 40.392H29.06V47.624H28.428V40.392ZM27.284 43.304H28.676V43.864H27.284V43.304ZM26.852 40.544H27.476V47.264H26.852V40.544ZM24.388 41.512H24.908V42.344C24.908 44.08 24.34 45.472 23.228 46.136L22.82 45.624C23.86 45.048 24.388 43.816 24.388 42.344V41.512ZM24.508 41.512H25.028V42.344C25.028 43.672 25.564 44.848 26.58 45.368L26.188 45.88C25.084 45.272 24.508 43.936 24.508 42.344V41.512ZM22.988 41.24H26.348V41.792H22.988V41.24Z" fill="#D80041"/>
<path d="M6.72857 35.9429H9.24827C10.3323 35.9429 10.9183 35.3569 10.9183 34.3022V11.3909C10.9183 10.3362 10.3323 9.75019 9.24827 9.75019H6.72857C5.61527 9.75019 5 10.3362 5 11.3909V34.3022C5 35.3569 5.61527 35.9429 6.72857 35.9429ZM14.5513 35.9429H20.03C21.1434 35.9429 21.7 35.3569 21.7 34.3022V16.02C21.7 14.9653 21.1434 14.3207 20.03 14.3207H14.5513C13.4965 14.3207 12.8812 14.9653 12.8812 16.02V34.3022C12.8812 35.3569 13.4965 35.9429 14.5513 35.9429ZM15.8404 19.2428C15.313 19.2428 14.9907 18.8034 14.9907 18.3639C14.9907 17.8658 15.3423 17.4849 15.8404 17.4849H18.7995C19.2976 17.4849 19.6785 17.8658 19.6785 18.3639C19.6785 18.8034 19.2976 19.2428 18.7995 19.2428H15.8404ZM15.8404 32.8666C15.3423 32.8666 14.9907 32.4857 14.9907 31.9583C14.9907 31.4602 15.313 31.0794 15.8404 31.0794H18.7995C19.2976 31.0794 19.6785 31.4602 19.6785 31.9583C19.6785 32.4857 19.2976 32.8666 18.7995 32.8666H15.8404ZM25.3623 35.9429H28.673C29.757 35.9429 30.343 35.3569 30.343 34.3022V7.67C30.343 6.58599 29.757 6 28.673 6H25.3623C24.249 6 23.6923 6.58599 23.6923 7.67V34.3022C23.6923 35.3569 24.249 35.9429 25.3623 35.9429ZM35.646 35.9429L37.7848 35.4155C38.8396 35.2104 39.279 34.5073 39.1032 33.4525L34.5327 11.3616C34.3276 10.2776 33.6538 9.75018 32.599 10.0139L30.4602 10.5413C29.4348 10.7756 28.9367 11.4495 29.1418 12.5042L33.7123 34.6538C33.9174 35.6792 34.6206 36.1773 35.646 35.9429Z" fill="#D80041"/>
</svg>
