<svg width="44" height="56" viewBox="0 0 44 56" fill="none" xmlns="http://www.w3.org/2000/svg">
<path d="M10.9667 31.5217C10.9667 33.2311 12.0119 34.252 13.7934 34.252H30.2304C32.0119 34.252 33.0333 33.2311 33.0333 31.5217V21.6216L22.7483 12.9798C22.2732 12.5762 21.7269 12.5999 21.2518 12.9798L10.9667 21.5979V31.5217ZM25.2423 31.8778H18.7815V23.9483C18.7815 23.3785 19.1615 22.9986 19.7553 22.9986H24.2684C24.886 22.9986 25.2423 23.3785 25.2423 23.9483V31.8778ZM7 20.3396C7 20.8856 7.42755 21.4317 8.14017 21.4317C8.52019 21.4317 8.80521 21.218 9.06654 20.9806L21.4418 10.6294C21.8456 10.2733 22.2019 10.3207 22.582 10.6294L34.9335 20.9806C35.2423 21.218 35.5036 21.4317 35.8599 21.4317C36.4774 21.4317 37 21.0043 37 20.387C37 19.9835 36.8813 19.7223 36.5962 19.4611L23.7221 8.65881C22.677 7.7804 21.3468 7.7804 20.3254 8.65881L7.40381 19.4611C7.14253 19.7223 7 20.0309 7 20.3396ZM29.8979 14.6891L33.0333 17.3481V11.5553C33.0333 11.033 32.7007 10.6531 32.1544 10.6531H30.8005C30.2779 10.6531 29.8979 11.033 29.8979 11.5553V14.6891Z" fill="#D80041"/>
<path d="M15.7966 41.224H18.5566V45.688H15.7966V41.224ZM17.9326 41.752H16.4206V45.16H17.9326V41.752ZM21.0446 40.392H21.6846V47.624H21.0446V40.392ZM18.2206 43.112H19.8846V43.664H18.2206V43.112ZM19.6126 40.544H20.2446V47.264H19.6126V40.544ZM28.156 40.4H28.828V45.68H28.156V40.4ZM24.18 46.92H29.044V47.464H24.18V46.92ZM24.18 45.136H24.836V47.104H24.18V45.136ZM24.948 40.896C26.028 40.896 26.828 41.632 26.828 42.68C26.828 43.72 26.028 44.464 24.948 44.464C23.868 44.464 23.06 43.72 23.06 42.68C23.06 41.632 23.868 40.896 24.948 40.896ZM24.948 41.472C24.244 41.472 23.708 41.968 23.708 42.68C23.708 43.384 24.244 43.88 24.948 43.88C25.652 43.88 26.188 43.384 26.188 42.68C26.188 41.968 25.652 41.472 24.948 41.472Z" fill="#D80041"/>
</svg>
