<svg width="44" height="56" viewBox="0 0 44 56" fill="none" xmlns="http://www.w3.org/2000/svg">
<path d="M3.78156 41.112H7.10156V45.792H3.78156V41.112ZM6.45356 41.648H4.42956V45.256H6.45356V41.648ZM8.38956 40.392H9.06156V47.624H8.38956V40.392ZM8.90156 43.28H10.2456V43.84H8.90156V43.28ZM16.1089 40.384H16.7729V47.632H16.1089V40.384ZM12.9569 40.944C14.0289 40.944 14.7969 41.928 14.7969 43.464C14.7969 45.008 14.0289 45.992 12.9569 45.992C11.8929 45.992 11.1249 45.008 11.1249 43.464C11.1249 41.928 11.8929 40.944 12.9569 40.944ZM12.9569 41.544C12.2529 41.544 11.7569 42.296 11.7569 43.464C11.7569 44.64 12.2529 45.408 12.9569 45.408C13.6689 45.408 14.1569 44.64 14.1569 43.464C14.1569 42.296 13.6689 41.544 12.9569 41.544ZM25.7563 40.392H26.3963V47.624H25.7563V40.392ZM23.3723 43.144H24.5723V43.728H23.3723V43.144ZM24.3563 40.568H24.9883V47.248H24.3563V40.568ZM20.2843 41.304H23.5883V41.848H20.2843V41.304ZM20.2203 45.848L20.1403 45.288C21.0763 45.288 22.6443 45.256 23.7403 45.112L23.7883 45.6C22.6603 45.816 21.1483 45.848 20.2203 45.848ZM20.8763 41.656H21.4843V45.44H20.8763V41.656ZM22.3803 41.656H22.9883V45.44H22.3803V41.656ZM32.8277 40.384H33.4917V47.632H32.8277V40.384ZM29.6757 40.944C30.7477 40.944 31.5157 41.928 31.5157 43.464C31.5157 45.008 30.7477 45.992 29.6757 45.992C28.6117 45.992 27.8437 45.008 27.8437 43.464C27.8437 41.928 28.6117 40.944 29.6757 40.944ZM29.6757 41.544C28.9717 41.544 28.4757 42.296 28.4757 43.464C28.4757 44.64 28.9717 45.408 29.6757 45.408C30.3877 45.408 30.8757 44.64 30.8757 43.464C30.8757 42.296 30.3877 41.544 29.6757 41.544ZM36.8511 41.424H37.3871V42.6C37.3871 44.128 36.4671 45.664 35.3151 46.232L34.9311 45.704C35.9791 45.208 36.8511 43.848 36.8511 42.6V41.424ZM36.9791 41.424H37.5151V42.6C37.5151 43.824 38.3871 45.072 39.4511 45.528L39.0751 46.056C37.9071 45.512 36.9791 44.104 36.9791 42.6V41.424ZM35.1711 41.128H39.2111V41.688H35.1711V41.128ZM40.1871 40.392H40.8511V47.624H40.1871V40.392Z" fill="#EBEBEB"/>
<path d="M9.6008 35.655H34.3992C35.4845 35.655 36 34.9224 36 33.9457C36 30.9612 31.5232 23.2558 22 23.2558C12.4768 23.2558 8 30.9612 8 33.9457C8 34.9224 8.51554 35.655 9.6008 35.655ZM22 21.0581C25.8527 21.0852 28.9729 17.7752 28.9729 13.4341C28.9729 9.36434 25.8527 6 22 6C18.1473 6 15.0271 9.36434 15.0271 13.4341C15.0271 17.7752 18.1473 21.031 22 21.0581Z" fill="#EBEBEB"/>
</svg>
