<svg width="44" height="56" viewBox="0 0 44 56" fill="none" xmlns="http://www.w3.org/2000/svg">
<path d="M17.1966 44.752H17.8606V47.68H17.1966V44.752ZM19.7646 44.752H20.4286V47.68H19.7646V44.752ZM15.5326 44.52H22.0926V45.072H15.5326V44.52ZM18.4606 40.648H19.0446V41.048C19.0446 42.44 17.6366 43.44 16.1406 43.712L15.8766 43.168C17.1886 42.96 18.4606 42.088 18.4606 41.048V40.648ZM18.5806 40.648H19.1566V41.048C19.1566 42.072 20.4446 42.968 21.7486 43.168L21.4766 43.712C19.9886 43.44 18.5806 42.424 18.5806 41.048V40.648ZM25.828 44.232H26.484V45.48H25.828V44.232ZM22.892 43.904H29.428V44.448H22.892V43.904ZM23.62 45.296H28.62V47.624H27.956V45.832H23.62V45.296ZM26.164 40.56C27.724 40.56 28.708 41.08 28.708 41.952C28.708 42.824 27.724 43.344 26.164 43.344C24.596 43.344 23.62 42.824 23.62 41.952C23.62 41.08 24.596 40.56 26.164 40.56ZM26.164 41.088C25.012 41.088 24.3 41.408 24.3 41.952C24.3 42.504 25.012 42.816 26.164 42.816C27.308 42.816 28.028 42.504 28.028 41.952C28.028 41.408 27.308 41.088 26.164 41.088Z" fill="#D80041"/>
<path d="M35.2837 34.9898C35.9011 35.6219 36.9596 35.6219 37.5476 34.9898C38.1503 34.343 38.1503 33.3433 37.5476 32.7259L23.5672 18.7014C22.9498 18.0839 21.8913 18.0839 21.3033 18.7014C20.6859 19.3482 20.7005 20.3626 21.3033 20.98L35.2837 34.9898ZM26.7279 24.8904L22.4205 20.5684C22.1559 20.3038 22.0677 20.0097 22.3323 19.7598C22.5529 19.5246 22.8616 19.5834 23.1409 19.8627L27.4629 24.1847L26.7279 24.8904Z" fill="#D80041"/>
<path d="M17.1579 35.2251C17.4225 35.2251 17.6136 35.034 17.6577 34.7547C18.1281 30.8296 18.3193 30.7267 22.3178 30.0799C22.6266 30.0211 22.8177 29.874 22.8177 29.58C22.8177 29.3007 22.6266 29.1243 22.3766 29.0802C18.3486 28.3158 18.1281 28.3305 17.6577 24.4054C17.6136 24.1261 17.4225 23.9349 17.1579 23.9349C16.8786 23.9349 16.6874 24.1261 16.6581 24.3907C16.1435 28.3746 16.0112 28.5069 11.9391 29.0802C11.6892 29.1096 11.4981 29.3007 11.4981 29.58C11.4981 29.8593 11.6892 30.0211 11.9391 30.0799C16.0112 30.859 16.1288 30.859 16.6581 34.7841C16.6874 35.034 16.8786 35.2251 17.1579 35.2251ZM10.175 22.4208C10.3808 22.4208 10.4984 22.2737 10.5425 22.0826C11.0423 19.2895 11.0571 19.1131 14.0119 18.6132C14.203 18.5691 14.35 18.4515 14.35 18.2457C14.35 18.0399 14.203 17.9076 14.0119 17.8782C11.0571 17.3637 11.0423 17.1873 10.5425 14.3941C10.4984 14.203 10.3808 14.0707 10.175 14.0707C9.96921 14.0707 9.85161 14.203 9.8075 14.3941C9.30766 17.1873 9.29297 17.3637 6.33812 17.8782C6.14701 17.9076 6 18.0399 6 18.2457C6 18.4515 6.14701 18.5691 6.33812 18.6132C9.29297 19.1131 9.30766 19.2895 9.8075 22.0826C9.85161 22.2737 9.96921 22.4208 10.175 22.4208ZM18.231 13.0123C18.4074 13.0123 18.4957 12.9094 18.5251 12.7476C19.0249 10.3955 18.9955 10.3073 21.4652 9.8075C21.6269 9.77809 21.7445 9.67518 21.7445 9.51348C21.7445 9.33708 21.6269 9.23417 21.4652 9.20476C18.9955 8.70494 19.0249 8.61674 18.5251 6.27931C18.4957 6.11761 18.4074 6 18.231 6C18.0546 6 17.9664 6.11761 17.937 6.27931C17.4372 8.61674 17.4666 8.70494 14.9969 9.20476C14.8352 9.23417 14.7176 9.33708 14.7176 9.51348C14.7176 9.67518 14.8352 9.77809 14.9969 9.8075C17.4666 10.3073 17.4372 10.3955 17.937 12.7476C17.9664 12.9094 18.0546 13.0123 18.231 13.0123ZM30.3739 18.2016C30.5797 18.2016 30.6973 18.0693 30.7414 17.8782C31.2412 15.0851 31.2559 14.9087 34.2108 14.3941C34.4166 14.3647 34.5489 14.2324 34.5489 14.0266C34.5489 13.8208 34.4166 13.7032 34.2108 13.6591C31.2559 13.1593 31.2412 12.9829 30.7414 10.1897C30.6973 9.99859 30.5797 9.85161 30.3739 9.85161C30.1681 9.85161 30.0505 9.99859 30.0063 10.1897C29.5065 12.9829 29.4918 13.1593 26.537 13.6591C26.3459 13.7032 26.1988 13.8208 26.1988 14.0266C26.1988 14.2324 26.3459 14.3647 26.537 14.3941C29.4918 14.9087 29.5065 15.0851 30.0063 17.8782C30.0505 18.0693 30.1681 18.2016 30.3739 18.2016Z" fill="#D80041"/>
</svg>
